# xmcd
#
# Track frame offsets: 
#        150
#        18555
#        34595
#        54702
#        71392
#        90580
#        103265
#        123790
#        141275
#        158445
#        176182
#        194990
#        210077
#        222362
#        241577
#        260180
#        277415
#        288792
#        308675
#        327480
#
# Disc length: 4633 seconds
#
# Revision: 24
# Processed by: cddbd v1.5.2PL0 Copyright (c) Steve Scherf et al.
# Submitted via: ExactAudioCopy v1.3
#
DISCID=2e121714
DTITLE=BOOWY - THIS BOOWY (TOCT-10190)
DYEAR=1998
DGENRE=JPop
TTITLE0=DREAMIN'
TTITLE1=Unknown Track 1
TTITLE2=BAD FEELING
TTITLE3=Unknown Track 2
TTITLE4=NO.NEW YORK
TTITLE5=ROUGE OF GRAY
TTITLE6=Unknown Track 3
TTITLE7=JUSTY
TTITLE8=IMAGE DOWN (LIVE)
TTITLE9=B-BLUE
TTITLE10=ONLY YOU
TTITLE11=BEAT SWEET
TTITLE12=WORKING MAN
TTITLE13=DRAMATIC? DRASTIC!
TTITLE14=LONGER THAN FOREVER
TTITLE15=MARIONETTE
TTITLE16=PLASTIC BOMB
TTITLE17=MEMORY
TTITLE18=Cham Cham
TTITLE19=CLOUDY HEART
EXTD=
EXTT0=
EXTT1=
EXTT2=
EXTT3=
EXTT4=
EXTT5=
EXTT6=
EXTT7=
EXTT8=
EXTT9=
EXTT10=
EXTT11=
EXTT12=
EXTT13=
EXTT14=
EXTT15=
EXTT16=
EXTT17=
EXTT18=찈໇챸ń
EXTT19=
PLAYORDER=
